<?xml version="1.0" standalone="yes"?>
<svg xmlns="http://www.w3.org/2000/svg" width="96" height="96">
<path style="fill:#010101; stroke:none;" d="M0 0L0 96L96 96L96 0L0 0z"/>
<path style="fill:#1be5bf; stroke:none;" d="M6 42C14.1195 34.0487 1.96002 9.65496 14 6L14 38L17 38L17 16L53 20L53 35L56 35L56 20L79 16L79 38L82 38L83 6C94.1651 12.1567 81.2127 34.3947 90 43L90 16C90 12.4893 90.894 7.30752 88.3966 4.43364C84.8195 0.317322 75.8565 2 71 2L25 2C20.1435 2 11.1805 0.317307 7.60339 4.43364C5.26492 7.12462 6.00021 11.7126 6 15L6 42z"/>
<path style="fill:#010101; stroke:none;" d="M9 40C18.0768 36.148 14 14.5962 14 6C5.03734 7.49573 9 32.5029 9 40M17 6L17 13L44 9.00077L79 13L79 6L17 6M83 6C83 14.7611 77.3389 35.9 87 40C87 32.7806 90.718 8.5616 83 6M38 12C37.5057 15.1372 37.9641 15.9996 41 17L40 12L38 12M47 12L48 13L47 12M55 12L56 17L58 17C58.4943 13.8628 58.0359 13.0004 55 12M51 13L52 14L51 13M44.3333 15.6667L44.6667 16.3333L44.3333 15.6667M17 16L17 37L53 35L53 20L17 16M48 16L49 17L48 16M56 20L56 35L79 37L79 16L56 20z"/>
<path style="fill:#0736ca; stroke:none;" d="M29 35.4244C22.8981 36.2354 12.8967 36.3657 8.42978 41.2816C2.291 48.0374 5.99608 68.2896 6 77C6.00161 80.57 5.47514 84.7899 8.3179 87.49C12.3395 91.3097 19.8152 91.5317 25 92.2708C41.476 94.6196 58.5599 94.2698 75 91.7253C79.3558 91.0511 85.4205 90.2604 88.3966 86.6065C90.6855 83.7963 89.9998 79.3732 90 76C90.0005 67.5014 93.606 47.8624 87.5671 41.2816C83.9794 37.372 75.981 36.5174 71 35.9498C57.5827 34.421 42.4369 33.6385 29 35.4244z"/>
<path style="fill:#2595c9; stroke:none;" d="M53 37L53 39L56 39L56 37L53 37M14 38L15 39L14 38z"/>
<path style="fill:#010101; stroke:none;" d="M32.6667 38.3333L33.3333 38.6667L32.6667 38.3333M61 38L61 39L64 39L61 38z"/>
<path style="fill:#2595c9; stroke:none;" d="M81 38L82 39L81 38z"/>
<path style="fill:#010101; stroke:none;" d="M23 39L24 40L23 39M71 39L72 40L71 39z"/>
<path style="fill:#2595c9; stroke:none;" d="M8 40L9 41L8 40z"/>
<path style="fill:#010101; stroke:none;" d="M18.6667 40.3333L19.3333 40.6667L18.6667 40.3333M76 40L76 41C79.3526 43.1234 79.5422 45.0088 76 47L76 48L86 45L86 43L76 40z"/>
<path style="fill:#2595c9; stroke:none;" d="M7 41L8 42L7 41z"/>
<path style="fill:#010101; stroke:none;" d="M10 43L10 45L16 47L17 41L10 43z"/>
<path style="fill:#2595c9; stroke:none;" d="M29.6667 41.3333L30.3333 41.6667L29.6667 41.3333z"/>
<path style="fill:#010101; stroke:none;" d="M25 44C32.208 48.9311 44.6212 47 53 47L53 41C44.1098 41 33.144 40.0808 25 44z"/>
<path style="fill:#1be5bf; stroke:none;" d="M53 41L53 47L56 47L56 41L53 41z"/>
<path style="fill:#010101; stroke:none;" d="M56 41L56 47L75 45L75 44L56 41z"/>
<path style="fill:#2595c9; stroke:none;" d="M6.33333 42.6667L6.66667 43.3333L6.33333 42.6667M22.6667 42.3333L23.3333 42.6667L22.6667 42.3333z"/>
<path style="fill:#becef0; stroke:none;" d="M19 44L27 46L27 45L25 44L28 43L19 44z"/>
<path style="fill:#2595c9; stroke:none;" d="M19 43L20 44L19 43M89 43L90 44L89 43M18 44L19 45L18 44M21 45L22 46L21 45M26 46L26 47L31 47L26 46z"/>
<path style="fill:#010101; stroke:none;" d="M17.6667 47.3333L18.3333 47.6667L17.6667 47.3333z"/>
<path style="fill:#2595c9; stroke:none;" d="M54 47L55 48L54 47M8 48L9 55L10 55L8 48z"/>
<path style="fill:#becef0; stroke:none;" d="M9 48C9.12692 51.9025 9.59906 53.9147 13 56L13 49L9 48z"/>
<path style="fill:#2595c9; stroke:none;" d="M10 48L11 49L10 48z"/>
<path style="fill:#010101; stroke:none;" d="M22 48L23 49L22 48M72.6667 48.3333L73.3333 48.6667L72.6667 48.3333M28 49C25.553 52.771 22.0072 51.7409 18 51L18 57L49 60L49 54L30 53L30 49L28 49M65.6667 49.3333L66.3333 49.6667L65.6667 49.3333M75 57C80.71 56.5015 86.0017 55.2778 87 49C81.2631 49.8434 75.5147 50.3931 75 57M13 50L13 56L15 56L15 50L13 50M70 52L52 54L52 59L72 58L70 52z"/>
<path style="fill:#2595c9; stroke:none;" d="M11 55L12 56L11 55M8 57L9 66L10 66L8 57z"/>
<path style="fill:#becef0; stroke:none;" d="M9 57C9.01561 61.4205 8.84917 64.7111 13 67L13 58L9 57z"/>
<path style="fill:#2595c9; stroke:none;" d="M10 57L11 58L10 57z"/>
<path style="fill:#010101; stroke:none;" d="M65 62L65 70C73.9906 68.8628 86.8641 69.4028 87 58L65 62M13 59L13 67L30 70L30 62L13 59M34 62L33 70L62 70L62 62L34 62z"/>
<path style="fill:#2595c9; stroke:none;" d="M8 68L8 76L9 76L8 68z"/>
<path style="fill:#becef0; stroke:none;" d="M9 68C9.00343 72.4428 8.39839 76.1502 13 78L13 69L9 68z"/>
<path style="fill:#2595c9; stroke:none;" d="M10 68L11 69L10 68z"/>
<path style="fill:#010101; stroke:none;" d="M75 80C82.0628 77.995 86.9027 77.1675 87 69C79.1855 70.7872 75.0309 71.2755 75 80M13 70L13 78L15 78L13 70M18 71C18.0464 84.109 35.7247 81.9989 46 82L46 74L18 71M71 72L49 74L49 82C56.1652 81.9992 75.9798 83.8875 71 72z"/>
<path style="fill:#2595c9; stroke:none;" d="M10 77L11 78L10 77M8 79L9 86L10 86L8 79z"/>
<path style="fill:#becef0; stroke:none;" d="M9 79C9.12692 82.9025 9.59906 84.9147 13 87C12.8731 83.0975 12.4009 81.0853 9 79z"/>
<path style="fill:#2595c9; stroke:none;" d="M12 80L13 81L12 80z"/>
<path style="fill:#010101; stroke:none;" d="M65 84L65 90C72.4148 88.2298 85.4779 89.5714 87 80L65 84M13 81C13.6717 89.6461 23.3297 88.3935 30 90L30 84L13 81M33 85L33 90L62 90L62 85L33 85z"/>
<path style="fill:#2595c9; stroke:none;" d="M11 86L12 87L11 86z"/>
</svg>
